<svg width="1440" height="800" viewBox="0 0 1440 800" fill="none" xmlns="http://www.w3.org/2000/svg">
<g clip-path="url(#clip0_24712_140438)">
<rect width="1439" height="800" fill="url(#paint0_linear_24712_140438)"/>
<g opacity="0.7">
<path d="M1346.55 -420.753C1307.8 -369.396 1269.58 -346.14 1227.81 -307.63C1170.04 -254.318 1138.92 -184.455 1126.17 -81.1718C1113.51 21.2156 1118.53 155.178 1073.64 245.148C1051.04 290.488 1015.39 317.198 984.419 340.378C941.77 372.278 897.869 397.962 854.26 424.253C784.805 466.13 687.556 505.435 634.506 602.987C589.375 686.005 579.265 802.597 557.161 900.312C545.698 950.913 530.972 1003.6 506.304 1042.95C474.852 1093.16 428.107 1112.5 388.849 1128.06C287.479 1168.26 166.516 1165.18 74.3506 1268.1L70.0987 1259.24C161.843 1155.35 283.954 1159.23 385.146 1119.33C424.66 1103.72 470.659 1084.34 502.411 1034.25C527.303 994.95 542.067 942.504 553.409 891.653C575.196 793.779 584.547 676.863 630.079 594.009C683.796 496.255 780.197 457.279 850.191 415.435C917.428 375.226 1020.31 335.329 1069.86 236.348C1114.97 146.253 1109.42 12.6049 1121.84 -89.9356C1134.37 -193.51 1165.96 -263.066 1223.78 -316.445C1265.44 -354.927 1303.65 -378.392 1342.35 -429.509C1344.05 -425.971 1344.91 -424.184 1346.59 -420.681L1346.55 -420.753Z" fill="white" fill-opacity="0.4"/>
<path d="M1367.39 -376.516C1328.04 -323.746 1289.27 -301.81 1246.65 -262.975C1188.8 -210.264 1159.02 -138.386 1144.45 -36.4749C1129.81 65.8831 1131.1 200.607 1086.59 290.277C1064.13 335.55 1028.04 361.571 997.24 385.279C956.04 416.917 913.747 443.424 871.659 470.36C804.539 513.312 707.154 554.997 656.494 650.464C612.348 733.67 597.261 847.758 572.36 944.493C559.589 994.037 544.279 1046.93 520.272 1086.56C489.964 1136.62 441.588 1156.23 403.344 1171.89C302.934 1212.97 187.996 1214.04 95.8167 1312.55L91.3423 1303.22C183.788 1203.76 300.108 1203.64 401.002 1162.73C439.445 1147.15 487.724 1127.67 518.254 1077.48C542.343 1037.86 557.446 984.957 569.824 935.18C593.959 838.191 607.759 723.434 652.013 640.2C703.069 544.133 800.97 503.104 868.576 460.494C911.064 433.722 953.792 407.449 995.396 375.732C1026.26 352.235 1062.38 326.113 1084.87 280.738C1129.36 191.032 1127.1 56.3871 1141.19 -45.8659C1155.26 -148.05 1185.19 -219.469 1242.99 -272.287C1285.36 -311.033 1323.94 -333.293 1363.13 -385.726C1364.88 -382.081 1365.71 -380.192 1367.41 -376.55L1367.39 -376.516Z" fill="white" fill-opacity="0.4"/>
<path d="M1386.87 -334.031C1346.34 -279.543 1306.4 -258.898 1262.34 -219.642C1204.08 -167.732 1174.18 -93.6262 1156.68 7.178C1138.75 110.453 1134.82 244.996 1089.61 334.67C1067.24 379.036 1032.01 405.31 1001.76 429.982C962.9 461.685 923.099 489.17 883.451 516.977C818.375 562.642 726.665 607.473 677.092 699.376C632.475 782.15 610.661 892.33 581.212 987.686C566.208 1036.25 549.311 1088.16 525.302 1127.85C495.719 1176.8 448.598 1197.25 411.199 1213.47C314.023 1255.71 206.082 1261.09 116.696 1355.55L112.016 1345.8C202.274 1250.39 311.962 1246.05 410.088 1204.11C447.68 1188.04 495.318 1167.83 525.037 1118.58C548.988 1078.85 565.432 1026.66 579.836 977.858C608.077 882.081 628.16 770.894 672.519 687.999C722.234 595.134 815.737 551.107 881.298 506.199C921.612 478.607 962.055 451.37 1001.54 419.704C1031.94 395.353 1067.48 369.202 1089.86 324.525C1134.81 234.905 1137.37 100.277 1154.41 -2.73947C1171.15 -103.799 1200.89 -177.325 1259.02 -229.416C1302.69 -268.558 1342.31 -289.534 1382.5 -343.557C1384.25 -339.739 1385.12 -337.849 1386.85 -334.067L1386.87 -334.031Z" fill="white" fill-opacity="0.4"/>
<path d="M1405.26 -292.931C1363.12 -236.552 1321.48 -217.128 1275.54 -177.413C1216.58 -126.502 1185.33 -49.6977 1164.05 49.9714C1141.72 154.741 1131.47 288.293 1084.63 378.389C1038.9 466.334 951.254 516.04 890.694 563.941C827.877 613.679 745.856 662.206 696.504 749.478C650.058 831.659 620.252 936.698 584.894 1030.17C566.92 1077.63 547.679 1127.65 523.04 1167.42C493.938 1214.41 450.189 1236.23 413.586 1253.5C321.564 1296.94 221.63 1306.8 137.124 1397.43C135.17 1393.35 134.177 1391.28 132.206 1387.18C218.104 1295.59 320.151 1286.87 413.596 1243.8C450.418 1226.82 495.15 1205.36 524.368 1157.86C548.8 1118.08 567.387 1067.53 584.536 1019.78C618.304 925.764 645.96 819.345 691.856 737.026C741.197 648.471 825.95 600.944 889.397 552.353C926.761 523.759 964.252 495.346 1000.86 463.585C1030.44 437.876 1064.39 411.048 1086.68 367.734C1133.02 277.782 1141.57 143.951 1162.73 39.5957C1182.98 -60.3793 1213.78 -136.449 1272.53 -187.615C1317.96 -227.154 1359.13 -246.883 1400.8 -302.806C1402.58 -298.849 1403.48 -296.887 1405.24 -292.966L1405.26 -292.931Z" fill="white" fill-opacity="0.4"/>
<path d="M1422.82 -252.9C1378.76 -194.483 1335.01 -176.133 1286.85 -136.053C1226.91 -86.1612 1193.34 -6.38126 1167.78 92.1147C1140.14 198.66 1122.87 330.683 1073.62 421.698C1028.55 504.931 952.036 558.484 894.546 611.297C834.862 666.158 764.435 719.08 715.096 800.526C665.604 882.241 627.01 981.22 584.694 1072.11C563.243 1118.15 541.155 1165.72 515.293 1205.68C486.573 1250.07 447.493 1273.63 411.86 1292.3C326.36 1337.02 235.318 1351.67 157.2 1438.43L152.044 1427.68C231.983 1339.86 325.488 1326.57 412.873 1282.18C448.794 1263.93 489.181 1240.84 518.039 1195.73C543.52 1155.82 564.803 1107.58 585.278 1061.09C625.646 969.495 661.812 868.808 710.375 787.002C759.72 703.892 833.33 652.24 893.989 598.824C952.396 547.418 1031.99 494.921 1077.23 410.382C1125.76 319.704 1141.08 187.214 1167.23 81.167C1191.57 -17.6117 1224.45 -96.5679 1284.1 -146.719C1331.64 -186.664 1374.8 -205.327 1418.3 -263.156C1420.12 -259.025 1421.06 -256.993 1422.86 -252.898L1422.82 -252.9Z" fill="white" fill-opacity="0.4"/>
<path d="M1439.72 -213.663C1393.52 -153.161 1347.31 -135.874 1296.72 -95.3093C1235.54 -46.2522 1198.97 36.5859 1168.87 133.741C1135.31 242.111 1110.61 372.216 1058.34 464.549C1014.14 542.626 949.214 600.214 895.985 658.727C840.992 719.175 782.027 777.544 733.052 852.039C679.417 933.658 631.68 1025.89 581.806 1113.42C528.409 1207.17 480.62 1286.48 407.331 1329.91C329.258 1376.27 247.768 1396 177.005 1478.62C174.848 1474.12 173.769 1471.87 171.594 1467.34C244.505 1383.51 328.775 1365.3 409.025 1319.46C483.822 1276.74 530.356 1199.67 582.986 1101.89C630.675 1013.33 675.758 919.168 728.119 837.574C777.25 760.977 839.371 704.325 895.863 645.492C950.435 588.689 1018.64 532.236 1063.1 452.686C1114.47 360.817 1136.99 230.129 1168.83 122.277C1197.62 24.73 1233.28 -57.1599 1294.07 -106.449C1343.96 -146.883 1389.42 -164.458 1435 -224.34C1436.89 -220.069 1437.83 -217.933 1439.7 -213.629L1439.72 -213.663Z" fill="white" fill-opacity="0.4"/>
<path d="M1456.46 -174.771C1409.15 -113.776 1362.33 -96.7086 1310.26 -58.1235C1243.84 -8.89116 1202.11 82.0371 1165.99 182.759C1126.42 293.099 1093.73 422.204 1036.59 514.611C993.708 583.907 942.541 643.557 896.207 706.41C789.536 851.161 684.998 998.431 581.319 1149.25C525.44 1230.55 471.874 1318.44 403.317 1366.05C332.763 1415.03 260.307 1439.87 196.679 1518.76C194.402 1514.02 193.272 1511.67 190.995 1506.92C256.293 1427.41 330.945 1403.88 403.384 1356.4C472.983 1310.79 524.125 1226.98 579.054 1142.6C682.219 984.104 784.808 833.946 896.36 692.333C945.717 629.664 1003.24 569.366 1046.4 494.792C1100.91 400.666 1130.9 272.883 1168.94 163.107C1202.24 66.9202 1241.23 -18.0157 1303.35 -66.5768C1355.68 -107.465 1403.71 -124.113 1451.49 -186.047C1453.45 -181.531 1454.43 -179.325 1456.4 -174.809L1456.46 -174.771Z" fill="white" fill-opacity="0.4"/>
<path d="M1473.64 -135.961C1424.1 -72.9852 1374.62 -56.7022 1320.11 -17.6382C1252.01 31.116 1206.43 125.108 1165.57 224.477C1119.62 336.204 1079.61 463.491 1018.87 557.869C977.185 622.642 936.019 686.062 896.516 754.707C855.332 826.295 814.186 898.716 766.767 959.156C704.457 1038.55 640.677 1114.47 577.447 1191.7C518.825 1263.29 461.705 1351.07 396.816 1404.42C334.833 1455.28 272.07 1486.01 216.338 1559.86C213.941 1554.87 212.743 1552.37 210.346 1547.38C268.5 1471.88 334.317 1442.82 399.076 1392.72C464.946 1341.75 521.28 1252.92 578.884 1178.7C688.459 1037.54 796.578 899.956 896.624 739.863C938.398 673.019 982.611 610.755 1024.64 544.619C1084.26 450.899 1121.95 323.054 1165.91 211.725C1205.33 111.921 1249.68 18.8923 1317.23 -29.9993C1370.99 -68.9357 1419.61 -85.4453 1468.45 -147.772C1470.52 -143.041 1471.57 -140.692 1473.66 -135.926L1473.64 -135.961Z" fill="white" fill-opacity="0.4"/>
<path d="M1491.34 -96.867C1439.66 -32.0184 1387.54 -16.4078 1330.7 23.052C1260.87 71.5154 1211.58 168.406 1166.32 266.41C1114.47 378.727 1067.63 506.279 1002.88 601.425C961.617 662.029 929.488 729.426 897.848 803.122C865.035 879.482 831.884 956.895 784.833 1011.88C716.755 1091.48 644.927 1161.26 574.653 1234.53C538.39 1272.37 501.671 1310.19 467 1352.36C441.686 1383.12 418.497 1416.88 391.436 1443.41C338.036 1495.73 284.256 1533.68 236.092 1601.75C233.558 1596.47 232.291 1593.83 229.756 1588.55C280.379 1518.48 337.07 1482.99 393.298 1431.13C456.84 1372.48 514.587 1288.02 575.71 1220.98C643.703 1146.4 712.932 1074.55 779.101 995.079C826.168 938.536 861.973 862.464 897.583 787.66C931.912 715.549 966.848 649.224 1008.26 587.521C1071.77 492.957 1116.37 365.026 1166.25 253.038C1210.1 154.533 1258.18 58.6414 1327.47 10.0404C1383.56 -29.2917 1434.81 -45.1289 1485.81 -109.396C1488.02 -104.378 1489.13 -101.885 1491.36 -96.8313L1491.34 -96.867Z" fill="white" fill-opacity="0.4"/>
<path d="M1509.42 -57.18C1455.81 9.4152 1401.24 24.398 1342.26 64.2294C1270.8 112.546 1218.23 212.049 1169.1 308.679C1111.7 421.676 1058.61 548.171 990.273 645.149C948.961 703.767 924.587 773.297 901.02 851.296C876.508 932.355 851.153 1011.91 803.322 1064.06C729.828 1144.27 650.564 1208.01 573.919 1277.63C534.777 1313.2 494.692 1348.82 457.792 1391.49C433.552 1419.49 412.396 1454.5 388.281 1483.1C343.267 1536.43 297.574 1582.06 256.025 1643.96L249.31 1629.97C293.025 1565.88 341.46 1522.95 389.336 1469.96C414.498 1442.12 436.27 1407.39 460.87 1378.55C497.061 1336.07 535.975 1299.69 574.194 1263.37C648.741 1192.48 725.471 1126.64 797.166 1046.71C844.595 993.801 872.632 914.725 900.024 835.229C926.404 758.649 953.369 689.659 994.566 630.549C1061.69 534.224 1112.7 407.324 1168.23 294.56C1216.08 197.435 1267.58 98.8017 1338.49 50.4168C1396.76 10.7156 1450.5 -4.49129 1503.47 -70.5023C1505.83 -65.1607 1507.03 -62.4885 1509.43 -57.1443L1509.42 -57.18Z" fill="white" fill-opacity="0.4"/>
<path d="M1528.11 -16.6133C1472.89 51.6067 1416.16 65.9095 1355.39 106.062C1282.53 154.208 1227.36 256.155 1175.09 351.417C1112.83 464.921 1054.35 590.059 983.003 689.143C940.876 747.699 923.133 817.593 907.19 899.034C890.55 983.969 872.047 1063.76 822.603 1115.29C744.495 1196.59 658.628 1254.68 576.57 1321.05C535.132 1354.56 492.132 1388.24 453.42 1431.62C430.03 1457.81 410.163 1493.02 388.807 1523.7C351.097 1577.88 312.872 1630.4 276.273 1686.73C273.411 1680.77 271.989 1677.81 269.145 1671.88C307.312 1613.7 348.248 1563.39 388.44 1509.6C410.777 1479.71 431.024 1444.46 454.703 1417.7C492.799 1374.63 534.827 1340.26 575.484 1306.05C655.701 1238.53 739.276 1178.42 815.835 1097.58C864.657 1046.02 885.502 966.157 904.928 882.502C923.564 802.231 943.567 732.267 985.324 673.862C1055.63 575.547 1112.29 449.881 1172.86 336.55C1224.06 240.737 1278.41 139.676 1350.8 91.4669C1410.96 51.3804 1466.96 36.8254 1521.63 -30.8051C1524.2 -25.1019 1525.51 -22.2144 1528.12 -16.4397L1528.11 -16.6133Z" fill="white" fill-opacity="0.4"/>
<path d="M1547.6 25.2286C1491.24 94.8908 1432.72 108.499 1370.57 148.927C1296.77 196.927 1239.93 300.987 1185.38 394.891C1119.26 508.713 1056.37 632.094 982.938 733.612C939.477 793.699 926.78 861.982 917.314 946.307C907.449 1034.07 894.166 1112.79 842.798 1165.29C761.408 1248.53 669.797 1301.33 583.683 1364.84C512.072 1417.65 449.811 1470 394.199 1565.47C361.886 1621.04 331.144 1677.54 296.921 1730.22C293.871 1723.86 292.363 1720.72 289.329 1714.39C324.123 1660.64 357.745 1605.11 391.842 1550.24C411.683 1518.31 431.204 1483.46 454.155 1457.92C493.637 1414.03 538.186 1381.36 580.727 1348.95C665.491 1284.39 755.009 1229.66 835.352 1147.25C885.993 1095.34 901.054 1015.97 913.32 929.179C925.089 845.965 939.469 776.745 982.413 717.424C1055.16 616.835 1116.55 492.738 1181.3 379.004C1235.09 284.535 1291.46 181.243 1364.95 133.19C1426.63 92.8712 1484.53 78.9822 1540.53 9.81761C1543.36 15.954 1544.76 19.0564 1547.66 25.2667L1547.6 25.2286Z" fill="white" fill-opacity="0.4"/>
<path d="M1568.17 68.6427C1511.21 139.532 1451.42 152.442 1388.45 192.932C1314.29 240.644 1257.06 346.609 1201.18 439.203C1132.44 553.132 1066.3 674.26 992.008 778.625C947.203 841.555 937.199 905.406 932.519 992.851C927.687 1083.17 917.183 1158.64 864.291 1213.69C781.437 1299.87 685.055 1347.89 596.532 1409.18C526.063 1457.95 456.946 1507.94 405.845 1608.91C376.465 1666.93 352.928 1723.12 318.093 1774.63C314.836 1767.84 313.225 1764.48 309.986 1757.73C344.238 1706.01 370.548 1649.23 400.798 1592.27C453.565 1492.93 520.009 1442.56 591.068 1392.34C678.865 1330.2 773.453 1280.38 856.005 1195.49C908.378 1141.63 919.659 1064.5 926.239 975.232C932.589 889.172 943.344 823.113 987.623 761.434C1061.76 658.238 1126.74 536.138 1194.6 422.224C1250.08 329.12 1307.32 223.849 1381.42 176.03C1444.15 135.525 1503.49 122.345 1560.3 51.8968C1563.41 58.5371 1564.96 61.8571 1568.16 68.607L1568.17 68.6427Z" fill="white" fill-opacity="0.4"/>
<path d="M1589.74 114.731C1532.75 185.485 1472.31 199.154 1409.3 239.924C1335.13 287.95 1278.94 394.924 1222.33 486.44C1152.56 599.239 1084.5 715.854 1011.54 823.119C966.426 889.433 956.376 947.911 953.181 1038.54C949.916 1131.04 939.677 1202.96 886.195 1260.65C804.021 1349.28 705.284 1393.82 616.539 1453.4C547.796 1499.58 473.909 1550.88 425.474 1652.47C396.309 1713.63 377.39 1769.13 339.725 1820.96L330.966 1802.7C367.368 1751.18 387.393 1696.47 416.274 1636.65C465.449 1534.76 538.001 1483.86 607.393 1436.86C696.376 1376.59 795.213 1331.09 877.77 1242.58C931.209 1185.31 941.514 1113.36 944.411 1021.18C947.228 931.189 957.09 871.903 1002.55 806.719C1076.62 700.529 1144.01 580.994 1213.67 467.112C1269.77 375.392 1326.57 268.42 1400.58 220.905C1463.78 180.355 1523.99 167.99 1581 96.4397C1584.45 103.621 1586.2 107.266 1589.75 114.662L1589.74 114.731Z" fill="white" fill-opacity="0.4"/>
<path d="M1613.34 162.907C1556.47 232.374 1495.58 250.104 1433.01 292.35C1359.49 341.969 1304.31 446.665 1246.43 535.835C1176.84 643.115 1107.51 750.931 1037.41 857.312C992.53 925.365 982.019 984.464 977.337 1076.34C972.604 1169.71 962.294 1243.31 908.48 1301.63C827.747 1389.12 729.959 1430.25 642.488 1487.09C574.368 1531.35 498.571 1582.84 452.023 1685.57C421.608 1752.74 405.07 1814.04 363.466 1868.87C359.507 1860.62 357.553 1856.55 353.714 1848.54C393.473 1795.4 411.022 1737.22 440.797 1672.99C488.053 1571.07 563.443 1519.48 631.576 1474.49C719.688 1416.3 818.028 1373.47 899.438 1285.3C953.057 1227.24 963.284 1154.64 967.311 1061.65C971.272 970.283 981.587 911.865 1026.44 844.435C1097.8 737.159 1166.62 625.255 1236.38 515.143C1293.74 424.623 1349.26 318.63 1423.22 269.766C1485.96 228.294 1546.65 212.494 1603.59 142.58C1607.45 150.618 1609.39 154.655 1613.34 162.907Z" fill="white" fill-opacity="0.4"/>
<path d="M1637.99 214.815C1581.3 283.852 1519.97 306.747 1457.82 351.498C1386.27 402.987 1331.42 503.09 1272.35 587.302C1203.41 685.641 1133.38 782.109 1066.22 883.815C1020.77 952.64 1009.71 1015.19 1003.08 1108.16C996.35 1202.44 985.582 1279.84 931.158 1338.51C852.49 1423.36 756.486 1459.59 671.073 1512.27C602.574 1554.52 526.107 1605.4 481.813 1711.59C450.052 1787.73 434.618 1859.68 388.429 1920.18L377.737 1897.89C421.818 1840.21 437.67 1773.67 468.738 1701.77C513.865 1597.4 590.499 1546.12 658.562 1503.05C744.954 1448.38 841.847 1409.81 921.512 1323.61C975.631 1265.05 986.132 1189.61 991.94 1095.76C997.646 1003.28 1008.47 942.596 1053.56 874.026C1122.04 769.872 1191.8 668.048 1261.1 565.365C1319.64 478.625 1374.58 376.274 1447.12 325.678C1509.46 282.151 1570.6 261.705 1627.36 192.569C1631.59 201.39 1633.74 205.854 1638.05 214.853L1637.99 214.815Z" fill="white" fill-opacity="0.4"/>
<path d="M1663.7 269.191C1607.24 338.552 1545.49 367.471 1483.74 415.514C1415.02 468.949 1360.22 563.044 1299.95 639.967C1232.08 726.609 1161.82 809.259 1097.61 903.782C1050.91 972.529 1039.17 1040.89 1030.27 1134.71C1021.26 1229.88 1009.65 1312.84 954.325 1371.67C878.141 1452.71 784.64 1482.83 701.92 1530.14C631.37 1570.48 557.18 1620.15 514.343 1731.47C480.937 1818.28 465.675 1905.2 414.583 1973.68C409.924 1963.97 407.629 1959.19 403.055 1949.66C451.86 1885.13 467.059 1805.62 499.686 1723.88C543.111 1615.13 618.632 1564.88 688.042 1523.68C772.054 1473.78 866.757 1440.72 944.137 1357.81C998.993 1299.02 1010.18 1218.85 1018.12 1124.13C1025.95 1030.69 1037.34 965.288 1083.39 896.432C1148.96 798.39 1219.15 709.049 1287.52 616.756C1347.21 536.195 1402.02 439.259 1472.13 386.706C1534.06 340.302 1595.62 314.247 1652.15 245.133C1656.73 254.663 1659.04 259.482 1663.68 269.155L1663.7 269.191Z" fill="white" fill-opacity="0.4"/>
<path d="M1690.17 324.375C1633.88 394.748 1571.76 430.259 1510.4 482.204C1444.89 537.634 1390.28 625.085 1328.66 692.636C1262.18 765.503 1192.08 832.222 1130.74 918.048C1082.24 985.884 1069.56 1062.36 1058.35 1156.7C1046.89 1252.72 1034 1342.72 977.619 1401.52C904.203 1478.01 813.736 1501.05 734.139 1542.21C660.247 1580.43 590.519 1628.92 548.512 1746.48C513.151 1845.47 497.194 1950.29 441.1 2028.78C436.15 2018.46 433.701 2013.36 428.802 2003.15C482.501 1929.64 498.038 1833.66 532.427 1740.61C574.756 1626.15 646.852 1577.15 719.022 1537.85C800.167 1493.63 892.142 1467.12 966.896 1388.39C1022.73 1329.56 1034.99 1243.08 1045.26 1147.44C1055.37 1053.31 1067.57 980.967 1115.17 912.59C1177.85 822.517 1248.11 747.908 1315.27 668.259C1376.2 595.988 1430.99 505.327 1498.05 450.857C1559.58 400.864 1621.54 368.53 1677.9 298.715C1682.78 308.888 1685.24 314.027 1690.19 324.342L1690.17 324.375Z" fill="white" fill-opacity="0.4"/>
<path d="M1717.17 380.502C1660.92 452.404 1598.6 494.868 1537.61 551.097C1474.98 608.855 1421.63 689.215 1358.13 745.672C1293.38 803.264 1223.7 852.033 1165.05 928.811C1114.46 995.067 1100.57 1081.24 1087.05 1175.89C1073.23 1272.6 1058.68 1370.89 1001.04 1429.34C930.592 1500.78 843.457 1516.02 767.35 1550.47C689.649 1585.62 625.033 1634.04 583.912 1758.31C546.794 1870.57 529 1995.02 468.065 2084.97C462.875 2074.15 460.289 2068.76 455.133 2058.02C513.638 1973.99 530.687 1859.29 566.744 1753.62C608.05 1632.58 675.673 1584.31 751.288 1547.58C829.161 1509.77 917.979 1490.59 989.881 1416.63C1046.87 1358.01 1060.58 1263.92 1073.22 1167.52C1085.62 1073.05 1098.87 991.652 1148.41 924.639C1208.41 843.475 1278.25 785.57 1343.93 720.274C1406.44 658.143 1460.59 574.265 1524.55 517.698C1585.73 463.628 1647.95 424.622 1704.22 353.517C1709.37 364.261 1711.96 369.651 1717.15 380.466L1717.17 380.502Z" fill="white" fill-opacity="0.4"/>
<path d="M1744.43 437.115C1688.16 510.824 1625.78 560.563 1565.07 621.076C1504.27 681.652 1454.2 755.116 1388.04 798.907C1325.33 840.415 1256.45 869.73 1199.99 937.849C1147.21 1001.55 1131.7 1099.27 1116.09 1193.7C1100.03 1290.93 1083.49 1398.33 1024.6 1456.18C957.14 1522.48 873.568 1529.48 801.152 1556.88C763.825 1571.02 722.907 1587.81 689.439 1625.15C657.971 1660.29 636.831 1714.78 619.992 1768.59C580.52 1894.64 561.144 2039.1 495.261 2141.7C489.883 2130.5 487.176 2124.86 481.797 2113.65C545.186 2017.58 563.708 1883.32 601.962 1764.37C642.935 1636.92 704.467 1587.93 784.271 1554.64C858.583 1523.64 944.015 1512.39 1012.98 1443.44C1071.22 1385.24 1086.7 1282.6 1101.66 1185.57C1116.24 1090.94 1130.89 999.302 1182.55 934.181C1240.04 861.761 1309.39 822.357 1373.19 772.567C1437.88 722.103 1489.84 645.048 1551.49 586.151C1612.37 528.005 1674.74 481.764 1730.96 409.058C1736.34 420.267 1739.03 425.871 1744.43 437.115Z" fill="white" fill-opacity="0.4"/>
<path d="M1771.67 493.346C1715.18 569.141 1652.92 625.625 1592.48 690.677C1563.87 721.5 1538.25 758.952 1510.01 790.282C1481.86 821.549 1449.34 838.512 1417.83 851.794C1357.53 877.174 1289.82 886.089 1234.82 946.553C1179.94 1006.92 1162.38 1117.5 1144.99 1211.26C1126.88 1308.88 1108.12 1425.77 1047.95 1482.83C983.336 1544.13 903.42 1542.69 834.677 1563.12C799.132 1573.69 759.607 1587.04 727.571 1622.19C694.005 1659.02 672.836 1721.76 655.789 1778.77C613.966 1918.74 592.94 2082.86 522.26 2198.41C516.726 2186.87 513.951 2181.09 508.399 2169.52C576.58 2060.76 596.752 1906.84 637.335 1774.17C654.276 1718.79 675.407 1660.41 707.886 1624.42C740.666 1588.13 780.922 1572.96 817.39 1560.54C888.078 1536.45 969.917 1533.43 1036.03 1469.55C1095.54 1412.04 1113.1 1300.2 1130.18 1202.69C1146.68 1108.5 1163.12 1004.82 1216.93 942.614C1272.58 878.24 1340.98 858.52 1402.59 824.729C1434.68 807.116 1467.37 786.248 1495.91 753.029C1523.81 720.569 1549.53 684.822 1578.5 654.853C1639.07 592.166 1701.42 539.222 1757.78 464.493C1763.33 476.062 1766.11 481.846 1771.64 493.379L1771.67 493.346Z" fill="white" fill-opacity="0.4"/>
<path d="M1799.08 549.338C1742.25 627.205 1680.24 690.087 1620.05 759.53C1592.22 791.668 1566.38 832.667 1537.73 861.842C1510.11 889.97 1477.86 899.575 1447.65 904.866C1390.11 914.932 1323.82 903.135 1269.4 957.431C1212.74 1013.95 1192.73 1138.11 1173.91 1230.72C1154.02 1328.65 1132.97 1454.93 1071.57 1511.12C1009.56 1567.87 933.159 1558.15 868.006 1571.88C834.137 1579.03 795.976 1589.14 765.226 1622.24C729.754 1660.43 708.469 1731.46 691.21 1791.26C646.98 1944.45 624.35 2127.41 549.135 2255.43C543.53 2243.75 540.702 2237.86 535.029 2226.03C607.824 2104.62 629.621 1931.67 672.605 1785.44C689.754 1727.09 710.978 1660.46 745.442 1622.93C776.87 1588.73 815.773 1576.9 850.54 1567.93C917.632 1550.61 995.954 1555.87 1059.35 1496.71C1120.11 1440.03 1139.91 1318.76 1158.87 1220.92C1176.96 1127.64 1195.61 1010.78 1251.36 952.129C1305.99 894.655 1373.1 895.233 1432.19 877.009C1463.14 867.463 1495.53 853.879 1523.42 824.138C1551.89 793.738 1577.57 754.671 1605.85 723.219C1666.18 656.073 1728.37 596.602 1785.01 519.832C1790.68 531.658 1793.49 537.517 1799.11 549.236L1799.08 549.338Z" fill="white" fill-opacity="0.4"/>
<path d="M1826 604.238C1768.67 684.035 1707.07 752.638 1647.06 826.094C1620.21 858.972 1593.7 904.329 1564.84 930.943C1537.02 956.615 1505.64 959.235 1476.6 957.524C1421.99 954.28 1357.37 921.933 1302.66 971.703C1244.69 1024.46 1222.01 1161.62 1202.07 1252.91C1180.66 1351.01 1157.36 1486.05 1094.91 1541.31C1035.1 1594.27 962.059 1576.61 900.176 1584.3C867.808 1588.32 830.941 1595.46 801.252 1626.88C764.124 1666.21 742.683 1744.7 725.27 1806.75C678.918 1972.02 654.898 2172.36 575.484 2311.42C569.859 2299.69 567.012 2293.76 561.302 2281.85C638.416 2148.65 661.743 1957.78 706.947 1798.93C724.28 1738.05 745.636 1663.58 781.87 1624.82C812.133 1592.5 849.711 1583.74 882.881 1578.03C946.567 1567.05 1021.46 1580.35 1082.46 1525.35C1144.34 1469.57 1166.41 1339.27 1187.03 1241.2C1206.38 1149.18 1227.56 1019.04 1284.87 964.227C1339.31 912.151 1404.93 933.074 1461.18 929.236C1490.96 927.211 1522.66 920.55 1550.45 893.8C1579.25 866.073 1605.4 822.742 1632.74 790.274C1692.88 718.943 1754.72 653.442 1811.77 574.67C1817.5 586.611 1820.33 592.509 1825.96 604.236L1826 604.238Z" fill="white" fill-opacity="0.4"/>
<path d="M1852.06 657.548C1794.18 738.777 1733.07 812.379 1673.22 889.252C1647.17 922.685 1619.88 971.247 1591.03 996.314C1563.02 1020.6 1532.04 1017.31 1504.3 1009.5C1452.75 995.054 1389.29 944.086 1334.05 991.038C1275.17 1041.06 1250.03 1188.81 1229.19 1279.11C1206.52 1377.43 1181.26 1519.71 1117.92 1574.4C1059.87 1624.54 989.796 1599.76 930.707 1602.25C899.526 1603.57 863.858 1608.29 834.926 1638.56C796.488 1678.73 774.916 1763.05 757.369 1826.97C709.271 2001.91 684.201 2217.98 601.072 2365.63C595.496 2354.01 592.683 2348.14 586.97 2336.23C668.042 2193.1 692.557 1985.78 739.718 1816.02C757.207 1753.08 778.704 1671.87 816.453 1632.11C845.781 1601.24 882.132 1595.17 913.944 1592.4C974.587 1587.03 1046.32 1607.88 1105.35 1556.23C1168.21 1501.24 1192.4 1362.85 1214.39 1264.63C1234.72 1173.84 1258.5 1031.74 1316.94 980.302C1371.89 931.909 1435.9 972.6 1489.24 980.871C1517.74 985.292 1548.93 985.434 1576.81 960.447C1605.68 934.582 1632.54 887.73 1659.04 854.568C1719 779.507 1780.42 708.667 1837.98 628.181C1843.69 640.092 1846.51 645.959 1852.08 657.584L1852.06 657.548Z" fill="white" fill-opacity="0.4"/>
<path d="M1876.97 708.676C1818.41 790.662 1757.92 868.292 1698.19 947.775C1672.72 981.673 1644.79 1032.3 1616 1056.58C1587.47 1080.67 1557.19 1072.88 1530.29 1060.46C1481.27 1037.86 1418.97 970.624 1362.82 1017.16C1303.43 1066.41 1276.46 1220.59 1254.85 1310.68C1231.18 1409.39 1204.42 1556.61 1140.47 1611.24C1083.56 1659.89 1016.03 1629.1 959.03 1627.41C928.551 1626.52 893.933 1629.67 865.414 1659.32C826.006 1700.28 804.455 1787.8 786.783 1853.09C758.929 1956.03 737.408 2061.92 711.626 2165.82C689.456 2255.07 666.953 2344.31 625.618 2417.45C620.179 2406.11 617.416 2400.35 611.805 2388.64C696.327 2238.41 721.707 2016.33 770.332 1838.19C787.95 1773.63 809.509 1687.64 848.41 1647.13C877.148 1617.18 912.35 1613.23 943.19 1612.86C1001.33 1612.23 1070.31 1639.66 1127.83 1590.26C1191.44 1535.67 1217.41 1391.01 1240.52 1292.54C1261.67 1202.43 1287.67 1051.45 1346.8 1001.97C1402.4 955.472 1465.39 1013.48 1515.83 1031.65C1543.18 1041.49 1573.88 1046.88 1602.1 1022.8C1630.93 998.177 1658.51 948.605 1684.3 914.935C1744.1 836.881 1804.97 761.462 1863.14 679.835C1868.75 691.536 1871.53 697.333 1876.96 708.64L1876.97 708.676Z" fill="white" fill-opacity="0.4"/>
<path d="M1900.46 757.035C1841.18 838.827 1781.33 919.369 1721.71 1000.44C1695.85 1035.58 1668.4 1083.78 1639.39 1110.49C1610.95 1136.71 1580.14 1125.48 1554.13 1110.23C1506.75 1082.42 1445.41 1002.88 1388.35 1051.84C1328.72 1103 1301.08 1258.03 1278.66 1349.13C1254.18 1448.48 1226.71 1597.65 1162.37 1653C1105.96 1701.55 1040.35 1666.4 984.521 1661.96C954.194 1659.55 920.391 1662.23 891.882 1691.93C851.921 1733.53 830.636 1820.88 812.835 1887.19C784.182 1993.96 762.005 2103.74 735.466 2211.48C713.317 2301.31 691.187 2393.37 648.844 2466.3C643.626 2455.42 640.949 2449.84 635.508 2438.49C677.271 2365.11 699.7 2274.59 721.901 2184.86C748.034 2079.22 769.846 1971.54 798.052 1866.86C815.771 1801.14 837.245 1713.17 876.939 1671.94C905.415 1642.35 939.69 1639.55 970.02 1641.13C1026.45 1644.04 1093.14 1676.76 1149.79 1628.36C1213.94 1573.52 1241.07 1425.1 1265.08 1326.2C1287.02 1235.83 1314.38 1080.59 1373.92 1030.91C1430.41 983.792 1492.35 1056.41 1540.61 1081.43C1567.34 1095.27 1597.27 1104.16 1626.07 1079.87C1654.86 1055.54 1682.97 1004.6 1708.34 970.477C1768.03 890.204 1828.29 811.286 1887.14 729.259C1892.6 740.641 1895.26 746.19 1900.48 757.071L1900.46 757.035Z" fill="white" fill-opacity="0.4"/>
<path d="M1922.54 802.811C1862.79 883.296 1803.68 965.141 1744.3 1046.41C1718.41 1081.83 1691.04 1128.51 1662.1 1156.06C1633.7 1183.12 1602.76 1171.53 1576.68 1156.31C1529.27 1128.6 1466.31 1047.22 1409.32 1097.68C1349.85 1150.35 1322.4 1304.18 1299.7 1395.91C1275 1495.81 1247.58 1644.5 1183.14 1700.76C1126.73 1750.01 1061.17 1713.36 1005.45 1708.24C975.002 1705.4 941.355 1708.16 912.768 1738.2C872.549 1780.45 851.157 1866.42 833.335 1933.53C805.027 2040.19 783.561 2149.95 757.485 2257.66C735.686 2347.73 713.779 2439.85 670.844 2512.23C665.66 2501.42 663.068 2496.01 657.867 2485.17C700.49 2412.98 722.379 2320.23 744.418 2230.66C771.118 2121.98 793.455 2011.27 822.31 1903.56C840.134 1837.04 861.281 1750.82 901.315 1708.94C929.93 1679.04 963.501 1676.2 993.977 1679.01C1049.66 1684.13 1114.73 1720.43 1171.14 1671.46C1235.55 1615.55 1263.08 1466.59 1287.78 1366.93C1310.56 1275.04 1338.11 1121.42 1397.71 1068.76C1455.08 1018.07 1516.08 1100.93 1563.18 1129.91C1589.23 1145.93 1619.86 1157.36 1648.41 1130.21C1677.46 1102.63 1704.83 1055.35 1730.83 1019.84C1790.41 938.477 1850.01 857.149 1909.59 775.715C1914.79 786.562 1917.38 791.967 1922.57 802.778L1922.54 802.811Z" fill="white" fill-opacity="0.4"/>
<path d="M1944.46 848.404C1884.82 926.603 1826.88 1008.28 1768.24 1088.48C1743.13 1122.76 1715.02 1171.11 1686.6 1196.36C1657.05 1222.62 1627.05 1214.35 1599.12 1200.72C1549.54 1176.55 1482.42 1100.76 1425.26 1152.64C1365.65 1206.72 1338.53 1359.81 1315.72 1452.4C1291.02 1552.72 1263.76 1702.15 1199.06 1758.81C1142.34 1808.49 1075.69 1771.32 1019.63 1766.18C989.075 1763.37 955.108 1765.8 926.408 1796.11C886.355 1838.37 865.124 1922.99 847.876 1990.2C821.208 2094.15 801.78 2201.19 777.475 2306.12C756.677 2396.01 735.443 2486.09 692.762 2557.82L679.46 2530.08C722.388 2457.77 744.147 2366.27 765.711 2276.04C791.238 2169.2 812.053 2060.27 839.853 1954.48C857.523 1887.22 878.938 1801.64 919.171 1759.25C947.79 1729.11 981.506 1726.49 1011.98 1729.3C1067.76 1734.46 1133.7 1771.3 1190.18 1721.88C1254.66 1665.45 1282.03 1516.66 1306.74 1416.61C1329.43 1324.79 1356.79 1171.02 1416.28 1118.04C1473.19 1067.33 1537.53 1147.05 1585.52 1173.69C1612.69 1188.77 1642.09 1198.14 1671.44 1172.39C1700.03 1147.32 1728.32 1097.74 1753.46 1063.29C1812.64 982.283 1871.37 900.415 1931.14 820.625C1936.46 831.723 1939.13 837.271 1944.45 848.368L1944.46 848.404Z" fill="white" fill-opacity="0.4"/>
<path d="M1966.35 894.014C1907.24 969.115 1850.87 1049.77 1793.31 1128.2C1768.27 1162.34 1740.61 1207.93 1712.48 1233.79C1682.21 1261.57 1650.88 1256.24 1621.09 1245.52C1567.77 1226.34 1495.5 1158.71 1437.16 1214.09C1377.17 1271.07 1350.47 1422.33 1327.29 1517.08C1302.6 1617.92 1275.37 1769.36 1210.26 1826.23C1152.91 1876.36 1084.86 1838.62 1028.21 1833.41C997.402 1830.58 962.925 1832.71 933.948 1863.27C894.557 1904.81 874.135 1987.08 857.994 2053.49C815.443 2229 800.461 2459.16 714.692 2603.36C709.234 2591.98 706.505 2586.29 701.047 2574.9C743.451 2503.61 764.269 2414.52 784.543 2325.05C808.054 2221.32 826.604 2115.49 852.536 2012.78C869.448 1945.79 890.482 1861.86 930.328 1819.76C959.117 1789.39 993.218 1787.07 1023.86 1789.89C1080.08 1795.04 1147.2 1832.44 1204.09 1782.6C1268.89 1725.84 1296.13 1575.86 1320.83 1475.37C1343.75 1382.17 1370.73 1229.64 1430.44 1174.69C1487.91 1121.8 1556.7 1195.02 1607.42 1217.62C1635.91 1230.31 1666.33 1237.7 1696.05 1211.03C1724.38 1185.6 1752.36 1138.16 1777.44 1103.91C1835.77 1024.25 1893.2 942.857 1952.68 865.659C1958.13 877.042 1960.86 882.733 1966.32 894.116L1966.35 894.014Z" fill="white" fill-opacity="0.4"/>
<path d="M1988.3 939.694C1930.03 1011.27 1875.55 1090.47 1819.42 1166.59C1793.84 1201.29 1767.31 1240.24 1739.54 1269.63C1709.48 1301.45 1673.79 1297.94 1642.76 1291.04C1584.56 1278.05 1506.4 1220.17 1445.98 1280.77C1385.38 1341.5 1359.15 1490.64 1335.41 1588.27C1310.76 1689.7 1283.51 1844.09 1217.84 1901.07C1159.59 1951.59 1089.97 1913.27 1032.43 1908.04C1001.35 1905.23 966.043 1906.88 936.758 1937.81C898.395 1978.3 879.308 2056.96 864.747 2122.04C827.082 2290.35 818.719 2510.69 736.655 2649.01C731.06 2637.34 728.262 2631.5 722.684 2619.87C807.303 2477.48 820.234 2250.36 861.327 2077.02C876.985 2011.03 897.009 1929.78 936.115 1888.58C965.205 1857.91 999.875 1855.94 1030.79 1858.74C1087.71 1863.93 1156.26 1901.87 1213.88 1851.63C1279.14 1794.73 1306.37 1642.39 1331.06 1541.38C1354.42 1445.74 1380.94 1295.2 1441.13 1237.05C1500.07 1180.07 1574.21 1244.62 1629.02 1261.88C1659.58 1271.5 1691.44 1275.68 1722.06 1247.19C1750.08 1221.12 1777.58 1176.46 1802.59 1142.42C1859.7 1064.73 1915.48 984.526 1974.35 910.524C1979.95 922.193 1982.74 928.027 1988.32 939.661L1988.3 939.694Z" fill="white" fill-opacity="0.4"/>
<path d="M2010.23 985.353C1953.01 1053.31 1900.66 1130.83 1846.12 1204.61C1820.72 1238.94 1794.43 1275.02 1767.33 1305.22C1735.96 1340.12 1697.73 1340.8 1664.08 1337.76C1600.27 1331.97 1515.69 1284.47 1452.42 1351.32C1391.13 1416.07 1365.24 1563.38 1340.92 1664.24C1316.3 1766.33 1288.97 1924.43 1222.6 1981.36C1163.23 2032.3 1091.92 1993.39 1033.33 1988.09C1001.8 1985.26 965.758 1986.55 935.964 2017.76C898.861 2056.59 881.453 2131.36 868.851 2194.48C837.043 2354.07 836.279 2563.2 758.609 2694.62C752.876 2682.67 750.027 2676.73 744.295 2664.77C825.031 2528.57 831.101 2311.6 867.032 2145.9C881.013 2081.37 899.604 2003.86 937.601 1963.88C967.034 1932.92 1002.56 1931.31 1033.77 1934.13C1091.64 1939.38 1161.75 1977.87 1220.34 1927.23C1286.21 1870.27 1313.5 1714.77 1338.13 1613.14C1362.03 1514.51 1388.15 1366 1448.97 1304.03C1510.21 1241.61 1590.32 1296.27 1650.21 1307.07C1682.05 1312.81 1718.46 1314.97 1748.91 1282.27C1776.5 1252.66 1802.93 1214.61 1828.46 1179.98C1884.14 1104.6 1937.96 1025.94 1995.91 955.501C2001.65 967.456 2004.5 973.398 2010.23 985.353Z" fill="white" fill-opacity="0.4"/>
<path d="M2032.16 1031.02C1976.1 1095.68 1926.07 1171.81 1873.2 1243.37C1848.11 1277.33 1822.03 1311.24 1795.53 1341.85C1762.47 1380.02 1721.65 1385.05 1685.18 1386.04C1616.4 1387.94 1522.93 1349.79 1457.41 1424.46C1395.44 1495.11 1370.05 1637.76 1344.81 1743.31C1320.25 1846.03 1292.78 2008.35 1225.69 2065.2C1165.08 2116.51 1092.01 2077.05 1032.2 2071.71C1000.17 2068.84 963.305 2069.85 932.95 2101.23C897.253 2138.19 881.748 2208.53 871.383 2269.42C845.878 2419.22 853.544 2616.18 780.568 2740.24C774.715 2728.03 771.78 2721.91 765.91 2709.67C842.221 2580.46 840.511 2374.84 870.523 2218.05C882.479 2155.53 899.352 2082.08 936.023 2043.79C965.965 2012.55 1002.27 2011.3 1033.93 2014.15C1092.88 2019.47 1164.7 2058.51 1224.44 2007.49C1290.99 1950.6 1318.39 1791.23 1342.98 1689C1367.46 1587.15 1393.29 1440.29 1454.81 1374.34C1519.03 1305.54 1605.61 1349.9 1671.16 1353.43C1705.64 1355.27 1744.63 1353.32 1776.45 1317.44C1803.4 1287.1 1829.58 1251.7 1854.92 1217.51C1909 1144.54 1960.62 1067.35 2017.53 1000.42C2023.38 1012.63 2026.31 1018.75 2032.18 1030.99L2032.16 1031.02Z" fill="white" fill-opacity="0.4"/>
<path d="M2054.09 1076.7C1999.17 1138.61 1951.54 1213.78 1900.38 1283.76C1875.67 1317.51 1849.78 1349.96 1823.85 1380.75C1788.9 1422.2 1745.39 1431.28 1706.11 1436.23C1631.75 1445.57 1530.57 1416.88 1461.74 1498.74C1399.05 1573.27 1373.81 1714.78 1347.96 1823.69C1323.44 1927.07 1295.81 2093.86 1227.97 2150.56C1166.07 2202.27 1091.17 2162.18 1030.11 2156.76C997.584 2153.86 959.842 2154.47 928.888 2186.2C894.621 2221.26 881.065 2286.92 873.159 2345.46C854.264 2484.92 870.828 2669.01 802.532 2785.85C796.542 2773.36 793.538 2767.1 787.549 2754.61C859.204 2632.59 849.075 2439.24 872.7 2292.25C882.371 2232.01 897.365 2162.97 932.63 2126.54C963.165 2095.02 1000.26 2094.17 1032.42 2097.05C1092.56 2102.41 1166.15 2142.04 1227.12 2090.65C1294.43 2033.85 1321.93 1870.32 1346.49 1767.36C1372 1660.44 1397.27 1519.14 1459.42 1446.77C1525.53 1369.82 1621.74 1405.45 1691.85 1401.45C1729.15 1399.33 1770.69 1393.12 1804.27 1354.02C1830.58 1323.36 1856.61 1289.94 1881.61 1256.04C1934.01 1185.01 1983.37 1109.19 2039.09 1045.42C2045.08 1057.91 2048.08 1064.17 2054.07 1076.66L2054.09 1076.7Z" fill="white" fill-opacity="0.4"/>
</g>
</g>
<defs>
<linearGradient id="paint0_linear_24712_140438" x1="179" y1="116" x2="1441.59" y2="795.188" gradientUnits="userSpaceOnUse">
<stop stop-color="#E8FCF2"/>
<stop offset="0.182692" stop-color="#D7FBE9"/>
<stop offset="1" stop-color="#5BD5DD"/>
</linearGradient>
<clipPath id="clip0_24712_140438">
<rect width="1440" height="800" fill="white"/>
</clipPath>
</defs>
</svg>
