<svg width="424" height="188" viewBox="0 0 424 188" fill="none" xmlns="http://www.w3.org/2000/svg">
<g filter="url(#filter0_d_979_5241)">
<circle cx="101" cy="140" r="20" fill="white"/>
</g>
<g clip-path="url(#clip0_979_5241)">
<path d="M93.8574 147.143L94.4601 145.244C94.4827 145.173 94.526 145.111 94.5838 145.067C94.6417 145.024 94.7112 145 94.7826 145H107.218C107.289 145 107.359 145.024 107.417 145.067C107.475 145.111 107.518 145.173 107.54 145.244L108.143 147.14" stroke="#005666" stroke-linecap="round" stroke-linejoin="round"/>
<path d="M95.2856 137.857H106.714V145H95.2856V137.857Z" stroke="#005666" stroke-linecap="round" stroke-linejoin="round"/>
<path d="M108.857 147.143H93.1431" stroke="#005666" stroke-linecap="round" stroke-linejoin="round"/>
<path d="M97.4287 137.857V145" stroke="#005666" stroke-linecap="round" stroke-linejoin="round"/>
<path d="M99.5718 137.857V145" stroke="#005666" stroke-linecap="round" stroke-linejoin="round"/>
<path d="M102.429 137.857V145" stroke="#005666" stroke-linecap="round" stroke-linejoin="round"/>
<path d="M104.572 137.857V145" stroke="#005666" stroke-linecap="round" stroke-linejoin="round"/>
<path d="M108.126 135.977C108.151 135.898 108.149 135.813 108.121 135.735C108.092 135.657 108.039 135.592 107.97 135.551L101.173 131.477C101.121 131.445 101.062 131.429 101.002 131.429C100.941 131.429 100.882 131.445 100.83 131.477L94.0303 135.548C93.9614 135.59 93.9083 135.655 93.88 135.732C93.8517 135.81 93.85 135.896 93.875 135.974L94.3998 137.611C94.4225 137.683 94.4662 137.745 94.5247 137.789C94.5831 137.833 94.6533 137.857 94.7253 137.857H107.281C107.353 137.857 107.423 137.833 107.481 137.789C107.54 137.745 107.584 137.683 107.606 137.611L108.126 135.977Z" stroke="#005666" stroke-linecap="round" stroke-linejoin="round"/>
<path d="M108.143 135.714H93.8574" stroke="#005666" stroke-linecap="round" stroke-linejoin="round"/>
</g>
<g filter="url(#filter1_d_979_5241)">
<circle cx="40" cy="88" r="20" fill="white"/>
</g>
<g clip-path="url(#clip1_979_5241)">
<path d="M46.2666 82.5571H33.7391C33.0108 82.5571 32.4204 83.1475 32.4204 83.8758V91.7879C32.4204 92.5162 33.0108 93.1066 33.7391 93.1066H46.2666C46.9949 93.1066 47.5852 92.5162 47.5852 91.7879V83.8758C47.5852 83.1475 46.9949 82.5571 46.2666 82.5571Z" stroke="#005666" stroke-linecap="round" stroke-linejoin="round"/>
<path d="M32.4204 85.1945H47.5852" stroke="#005666" stroke-linecap="round" stroke-linejoin="round"/>
<path d="M45.6074 87.8318H43.6294" stroke="#005666" stroke-linecap="round" stroke-linejoin="round"/>
<path d="M39.6732 87.8318H34.3984" stroke="#005666" stroke-linecap="round" stroke-linejoin="round"/>
<path d="M36.3765 89.8099H34.3984" stroke="#005666" stroke-linecap="round" stroke-linejoin="round"/>
</g>
<g filter="url(#filter2_d_979_5241)">
<circle cx="101" cy="36" r="20" fill="white"/>
</g>
<g clip-path="url(#clip2_979_5241)">
<path d="M105.467 36.2381C105.474 35.6117 105.64 34.9973 105.949 34.4523C106.258 33.9073 106.7 33.4494 107.233 33.1214C106.894 32.6384 106.447 32.2405 105.928 31.9586C105.409 31.6767 104.832 31.5186 104.242 31.4964C102.967 31.3714 101.742 32.2464 101.108 32.2464C100.475 32.2464 99.4417 31.5131 98.4083 31.5298C97.7138 31.5482 97.036 31.7469 96.4414 32.1063C95.8468 32.4657 95.3559 32.9734 95.0167 33.5798C93.575 36.0798 94.65 39.7964 96.0583 41.8298C96.7417 42.8214 97.5667 43.9381 98.6417 43.8964C99.7167 43.8548 100.075 43.2298 101.325 43.2298C102.575 43.2298 102.933 43.8964 104.025 43.8798C105.117 43.8631 105.85 42.8631 106.525 41.8714C107.013 41.1632 107.398 40.3886 107.667 39.5714C107.013 39.2932 106.456 38.8288 106.065 38.236C105.674 37.6432 105.466 36.9483 105.467 36.2381Z" stroke="#005666" stroke-linecap="round" stroke-linejoin="round"/>
<path d="M103.758 28.2048C104.462 27.3733 104.812 26.2994 104.733 25.2131C103.666 25.3129 102.678 25.8203 101.975 26.6298C101.622 27.0285 101.353 27.4949 101.186 28.0005C101.018 28.5062 100.955 29.0406 101 29.5714C101.534 29.5702 102.06 29.4463 102.538 29.2093C103.017 28.9724 103.434 28.6287 103.758 28.2048Z" stroke="#005666" stroke-linecap="round" stroke-linejoin="round"/>
</g>
<g filter="url(#filter3_d_979_5241)">
<circle cx="378" cy="88" r="20" fill="white"/>
</g>
<g clip-path="url(#clip3_979_5241)">
<path d="M370.857 95.1429L371.46 93.244C371.483 93.173 371.526 93.1112 371.584 93.0674C371.642 93.0236 371.711 93.0001 371.783 93H384.218C384.289 93.0001 384.359 93.0236 384.417 93.0674C384.475 93.1112 384.518 93.173 384.54 93.244L385.143 95.14" stroke="#005666" stroke-linecap="round" stroke-linejoin="round"/>
<path d="M372.286 85.8571H383.714V93H372.286V85.8571Z" stroke="#005666" stroke-linecap="round" stroke-linejoin="round"/>
<path d="M385.857 95.1429H370.143" stroke="#005666" stroke-linecap="round" stroke-linejoin="round"/>
<path d="M374.429 85.8571V93" stroke="#005666" stroke-linecap="round" stroke-linejoin="round"/>
<path d="M376.572 85.8571V93" stroke="#005666" stroke-linecap="round" stroke-linejoin="round"/>
<path d="M379.429 85.8571V93" stroke="#005666" stroke-linecap="round" stroke-linejoin="round"/>
<path d="M381.572 85.8571V93" stroke="#005666" stroke-linecap="round" stroke-linejoin="round"/>
<path d="M385.126 83.9773C385.151 83.8984 385.149 83.8128 385.121 83.7351C385.092 83.6574 385.039 83.5924 384.97 83.5511L378.173 79.4768C378.121 79.4452 378.062 79.4286 378.002 79.4286C377.941 79.4286 377.882 79.4452 377.83 79.4768L371.03 83.5482C370.961 83.5895 370.908 83.6546 370.88 83.7323C370.852 83.81 370.85 83.8955 370.875 83.9744L371.4 85.6109C371.423 85.6826 371.466 85.7449 371.525 85.7891C371.583 85.8333 371.653 85.8571 371.725 85.8571H384.281C384.353 85.8571 384.423 85.8333 384.481 85.7891C384.54 85.7449 384.584 85.6826 384.606 85.6109L385.126 83.9773Z" stroke="#005666" stroke-linecap="round" stroke-linejoin="round"/>
<path d="M385.143 83.7143H370.857" stroke="#005666" stroke-linecap="round" stroke-linejoin="round"/>
</g>
<g filter="url(#filter4_d_979_5241)">
<circle cx="351" cy="144" r="20" fill="white"/>
</g>
<path d="M348.37 148.583L343.345 147L343.31 146.99C343.026 146.927 342.728 146.97 342.473 147.11C342.218 147.251 342.022 147.48 341.924 147.754C341.825 148.028 341.83 148.329 341.938 148.6C342.045 148.871 342.247 149.093 342.507 149.226C352.369 154.333 349.853 154.103 360.143 150.673" stroke="#005666" stroke-linecap="round" stroke-linejoin="round"/>
<path d="M354.368 149.033L349.302 149.007C348.971 149.007 348.653 148.875 348.418 148.641C348.184 148.406 348.052 148.088 348.052 147.757" stroke="#005666" stroke-linecap="round" stroke-linejoin="round"/>
<path d="M360.143 144.417H358.353C357.407 144.415 356.466 144.562 355.565 144.851" stroke="#005666" stroke-linecap="round" stroke-linejoin="round"/>
<path d="M348.322 138.718H346.967C346.759 138.718 346.557 138.79 346.396 138.922C346.236 139.054 346.126 139.238 346.087 139.443C346.047 139.647 346.08 139.859 346.18 140.042C346.28 140.224 346.441 140.366 346.634 140.443L348.01 140.994C348.203 141.071 348.363 141.214 348.462 141.396C348.562 141.578 348.595 141.79 348.555 141.994C348.516 142.198 348.406 142.382 348.246 142.514C348.086 142.646 347.884 142.718 347.676 142.718H346.322" stroke="#005666" stroke-linecap="round" stroke-linejoin="round"/>
<path d="M347.319 138.718V137.75" stroke="#005666" stroke-linecap="round" stroke-linejoin="round"/>
<path d="M347.319 143.583V142.718" stroke="#005666" stroke-linecap="round" stroke-linejoin="round"/>
<path d="M347.319 145.302C344.788 145.302 342.736 143.25 342.736 140.718C342.736 138.187 344.788 136.135 347.319 136.135C349.85 136.135 351.902 138.187 351.902 140.718C351.902 143.25 349.85 145.302 347.319 145.302Z" stroke="#005666" stroke-linecap="round" stroke-linejoin="round"/>
<circle cx="246.5" cy="121.5" r="48.5" fill="url(#paint0_linear_979_5241)"/>
<path d="M101 112.333C102.473 112.333 103.667 113.527 103.667 115C103.667 116.473 102.473 117.667 101 117.667C99.5272 117.667 98.3333 116.473 98.3333 115C98.3333 113.527 99.5272 112.333 101 112.333ZM159 97.5L158.045 97.5L158.045 96.5L159 96.5L159 97.5ZM156.136 97.5L154.227 97.5L154.227 96.5L156.136 96.5L156.136 97.5ZM152.318 97.5L150.409 97.5L150.409 96.5L152.318 96.5L152.318 97.5ZM148.5 97.5L146.591 97.5L146.591 96.5L148.5 96.5L148.5 97.5ZM144.682 97.5L142.773 97.5L142.773 96.5L144.682 96.5L144.682 97.5ZM140.864 97.5L138.955 97.5L138.955 96.5L140.864 96.5L140.864 97.5ZM137.045 97.5L135.136 97.5L135.136 96.5L137.045 96.5L137.045 97.5ZM133.227 97.5L131.318 97.5L131.318 96.5L133.227 96.5L133.227 97.5ZM129.409 97.5L127.5 97.5L127.5 96.5L129.409 96.5L129.409 97.5ZM125.591 97.5L123.682 97.5L123.682 96.5L125.591 96.5L125.591 97.5ZM121.773 97.5L119.864 97.5L119.864 96.5L121.773 96.5L121.773 97.5ZM117.955 97.5L117 97.5L117 96.5L117.955 96.5L117.955 97.5ZM117 97.5C116.659 97.5 116.32 97.511 115.985 97.5327L115.92 96.5348C116.277 96.5117 116.637 96.5 117 96.5L117 97.5ZM113.974 97.795C113.305 97.9275 112.651 98.103 112.016 98.3186L111.694 97.3717C112.371 97.142 113.068 96.9551 113.78 96.8141L113.974 97.795ZM110.143 99.0951C109.535 99.3958 108.949 99.7353 108.388 100.11L107.832 99.2795C108.428 98.8802 109.052 98.5187 109.7 98.1985L110.143 99.0951ZM106.78 101.346C106.272 101.793 105.793 102.272 105.346 102.78L104.595 102.121C105.07 101.579 105.579 101.07 106.121 100.595L106.78 101.346ZM104.11 104.388C103.735 104.949 103.396 105.535 103.095 106.143L102.199 105.7C102.519 105.052 102.88 104.428 103.279 103.832L104.11 104.388ZM102.319 108.016C102.103 108.651 101.927 109.305 101.795 109.974L100.814 109.78C100.955 109.068 101.142 108.371 101.372 107.694L102.319 108.016ZM101.533 111.985C101.511 112.32 101.5 112.659 101.5 113L100.5 113C100.5 112.637 100.512 112.277 100.535 111.92L101.533 111.985ZM101.5 113L101.5 113.5L100.5 113.5L100.5 113L101.5 113ZM101.5 114.5L101.5 115L100.5 115L100.5 114.5L101.5 114.5Z" fill="#005666"/>
<path d="M101 63.6667C102.473 63.6667 103.667 62.4728 103.667 61C103.667 59.5272 102.473 58.3333 101 58.3333C99.5272 58.3333 98.3333 59.5272 98.3333 61C98.3333 62.4728 99.5272 63.6667 101 63.6667ZM159 78.5L158.045 78.5L158.045 79.5L159 79.5L159 78.5ZM156.136 78.5L154.227 78.5L154.227 79.5L156.136 79.5L156.136 78.5ZM152.318 78.5L150.409 78.5L150.409 79.5L152.318 79.5L152.318 78.5ZM148.5 78.5L146.591 78.5L146.591 79.5L148.5 79.5L148.5 78.5ZM144.682 78.5L142.773 78.5L142.773 79.5L144.682 79.5L144.682 78.5ZM140.864 78.5L138.955 78.5L138.955 79.5L140.864 79.5L140.864 78.5ZM137.045 78.5L135.136 78.5L135.136 79.5L137.045 79.5L137.045 78.5ZM133.227 78.5L131.318 78.5L131.318 79.5L133.227 79.5L133.227 78.5ZM129.409 78.5L127.5 78.5L127.5 79.5L129.409 79.5L129.409 78.5ZM125.591 78.5L123.682 78.5L123.682 79.5L125.591 79.5L125.591 78.5ZM121.773 78.5L119.864 78.5L119.864 79.5L121.773 79.5L121.773 78.5ZM117.955 78.5L117 78.5L117 79.5L117.955 79.5L117.955 78.5ZM117 78.5C116.659 78.5 116.32 78.489 115.985 78.4673L115.92 79.4652C116.277 79.4883 116.637 79.5 117 79.5L117 78.5ZM113.974 78.205C113.305 78.0725 112.651 77.897 112.016 77.6814L111.694 78.6283C112.371 78.858 113.068 79.0449 113.78 79.1859L113.974 78.205ZM110.143 76.9049C109.535 76.6042 108.949 76.2647 108.388 75.8896L107.832 76.7205C108.428 77.1198 109.052 77.4813 109.7 77.8015L110.143 76.9049ZM106.78 74.6539C106.272 74.2075 105.793 73.7284 105.346 73.2198L104.595 73.8794C105.07 74.4206 105.579 74.9305 106.121 75.4054L106.78 74.6539ZM104.11 71.6117C103.735 71.0514 103.396 70.4653 103.095 69.8567L102.199 70.2996C102.519 70.9477 102.88 71.5716 103.279 72.168L104.11 71.6117ZM102.319 67.9842C102.103 67.3489 101.927 66.695 101.795 66.0256L100.814 66.2196C100.955 66.9325 101.142 67.6289 101.372 68.3056L102.319 67.9842ZM101.533 64.0152C101.511 63.6797 101.5 63.3412 101.5 63L100.5 63C100.5 63.3627 100.512 63.7227 100.535 64.0797L101.533 64.0152ZM101.5 63L101.5 62.5L100.5 62.5L100.5 63L101.5 63ZM101.5 61.5L101.5 61L100.5 61L100.5 61.5L101.5 61.5Z" fill="#005666"/>
<path d="M351 85.3333C349.527 85.3333 348.333 86.5272 348.333 88C348.333 89.4728 349.527 90.6667 351 90.6667C352.473 90.6667 353.667 89.4728 353.667 88C353.667 86.5272 352.473 85.3333 351 85.3333ZM334.058 88L334.058 88.5L334.058 88ZM310 88.5L311.002 88.5L311.002 87.5L310 87.5L310 88.5ZM313.007 88.5L315.012 88.5L315.012 87.5L313.007 87.5L313.007 88.5ZM317.017 88.5L319.022 88.5L319.022 87.5L317.017 87.5L317.017 88.5ZM321.027 88.5L323.031 88.5L323.031 87.5L321.027 87.5L321.027 88.5ZM325.036 88.5L327.041 88.5L327.041 87.5L325.036 87.5L325.036 88.5ZM329.046 88.5L331.051 88.5L331.051 87.5L329.046 87.5L329.046 88.5ZM333.055 88.5L334.058 88.5L334.058 87.5L333.055 87.5L333.055 88.5ZM334.058 88.5L335.117 88.5L335.117 87.5L334.058 87.5L334.058 88.5ZM337.235 88.5L339.352 88.5L339.352 87.5L337.235 87.5L337.235 88.5ZM341.47 88.5L343.588 88.5L343.588 87.5L341.47 87.5L341.47 88.5ZM345.706 88.5L347.823 88.5L347.823 87.5L345.706 87.5L345.706 88.5ZM349.941 88.5L351 88.5L351 87.5L349.941 87.5L349.941 88.5Z" fill="#005666"/>
<path d="M322.333 144C322.333 142.527 323.527 141.333 325 141.333C326.473 141.333 327.667 142.527 327.667 144C327.667 145.473 326.473 146.667 325 146.667C323.527 146.667 322.333 145.473 322.333 144ZM303.5 100L303.5 101H302.5L302.5 100H303.5ZM303.5 103L303.5 105H302.5L302.5 103H303.5ZM303.5 107L303.5 109H302.5L302.5 107H303.5ZM303.5 111L303.5 113H302.5L302.5 111H303.5ZM303.5 115L303.5 117H302.5L302.5 115H303.5ZM303.5 119L303.5 121H302.5L302.5 119H303.5ZM303.5 123L303.5 125H302.5L302.5 123H303.5ZM303.5 127L303.5 128H302.5L302.5 127H303.5ZM303.5 128C303.5 128.341 303.511 128.68 303.533 129.015L302.535 129.08C302.512 128.723 302.5 128.363 302.5 128H303.5ZM303.795 131.026C303.927 131.695 304.103 132.349 304.319 132.984L303.372 133.306C303.142 132.629 302.955 131.932 302.814 131.22L303.795 131.026ZM305.095 134.857C305.396 135.465 305.735 136.051 306.11 136.612L305.279 137.168C304.88 136.572 304.519 135.948 304.199 135.3L305.095 134.857ZM307.346 138.22C307.793 138.728 308.272 139.207 308.78 139.654L308.121 140.405C307.579 139.93 307.07 139.421 306.595 138.879L307.346 138.22ZM310.388 140.89C310.949 141.265 311.535 141.604 312.143 141.905L311.7 142.801C311.052 142.481 310.428 142.12 309.832 141.721L310.388 140.89ZM314.016 142.681C314.651 142.897 315.305 143.073 315.974 143.205L315.78 144.186C315.068 144.045 314.371 143.858 313.694 143.628L314.016 142.681ZM317.985 143.467C318.32 143.489 318.659 143.5 319 143.5L319 144.5C318.637 144.5 318.277 144.488 317.92 144.465L317.985 143.467ZM319 143.5H320.5L320.5 144.5H319L319 143.5ZM323.5 143.5H325L325 144.5H323.5L323.5 143.5Z" fill="#005666"/>
<path d="M67 90.6667C68.4728 90.6667 69.6667 89.4728 69.6667 88C69.6667 86.5272 68.4728 85.3333 67 85.3333C65.5272 85.3333 64.3333 86.5272 64.3333 88C64.3333 89.4728 65.5272 90.6667 67 90.6667ZM107.5 88L107.5 87.5L107.5 88ZM165.5 87.5L164.533 87.5L164.533 88.5L165.5 88.5L165.5 87.5ZM162.6 87.5L160.667 87.5L160.667 88.5L162.6 88.5L162.6 87.5ZM158.733 87.5L156.8 87.5L156.8 88.5L158.733 88.5L158.733 87.5ZM154.867 87.5L152.933 87.5L152.933 88.5L154.867 88.5L154.867 87.5ZM151 87.5L149.067 87.5L149.067 88.5L151 88.5L151 87.5ZM147.133 87.5L145.2 87.5L145.2 88.5L147.133 88.5L147.133 87.5ZM143.267 87.5L141.333 87.5L141.333 88.5L143.267 88.5L143.267 87.5ZM139.4 87.5L137.467 87.5L137.467 88.5L139.4 88.5L139.4 87.5ZM135.533 87.5L133.6 87.5L133.6 88.5L135.533 88.5L135.533 87.5ZM131.667 87.5L129.733 87.5L129.733 88.5L131.667 88.5L131.667 87.5ZM127.8 87.5L125.867 87.5L125.867 88.5L127.8 88.5L127.8 87.5ZM123.933 87.5L122 87.5L122 88.5L123.933 88.5L123.933 87.5ZM120.067 87.5L118.133 87.5L118.133 88.5L120.067 88.5L120.067 87.5ZM116.2 87.5L114.267 87.5L114.267 88.5L116.2 88.5L116.2 87.5ZM112.333 87.5L110.4 87.5L110.4 88.5L112.333 88.5L112.333 87.5ZM108.467 87.5L107.5 87.5L107.5 88.5L108.467 88.5L108.467 87.5ZM107.5 87.5L106.487 87.5L106.487 88.5L107.5 88.5L107.5 87.5ZM104.462 87.5L102.437 87.5L102.437 88.5L104.462 88.5L104.462 87.5ZM100.412 87.5L98.3875 87.5L98.3875 88.5L100.412 88.5L100.412 87.5ZM96.3625 87.5L94.3375 87.5L94.3375 88.5L96.3625 88.5L96.3625 87.5ZM92.3125 87.5L90.2875 87.5L90.2875 88.5L92.3125 88.5L92.3125 87.5ZM88.2625 87.5L86.2375 87.5L86.2375 88.5L88.2625 88.5L88.2625 87.5ZM84.2125 87.5L82.1875 87.5L82.1875 88.5L84.2125 88.5L84.2125 87.5ZM80.1625 87.5L78.1375 87.5L78.1375 88.5L80.1625 88.5L80.1625 87.5ZM76.1125 87.5L74.0875 87.5L74.0875 88.5L76.1125 88.5L76.1125 87.5ZM72.0625 87.5L70.0375 87.5L70.0375 88.5L72.0625 88.5L72.0625 87.5ZM68.0125 87.5L67 87.5L67 88.5L68.0125 88.5L68.0125 87.5Z" fill="#005666"/>
<path d="M246 88L264.091 88L290 88" stroke="#005666" stroke-dasharray="2 2"/>
<circle cx="211" cy="88" r="56" fill="url(#paint1_linear_979_5241)"/>
<path fillRule="evenodd" clipRule="evenodd" d="M203.652 64.2174C202.139 64.2174 200.913 65.4437 200.913 66.9565V97.6087C200.913 103.66 196.008 108.565 189.957 108.565C183.905 108.565 179 103.66 179 97.6087V80.9783C179 78.7091 180.84 76.8696 183.109 76.8696C185.378 76.8696 187.217 78.7091 187.217 80.9783V97.6087C187.217 99.1215 188.444 100.348 189.957 100.348C191.469 100.348 192.696 99.1215 192.696 97.6087V66.9565C192.696 60.9054 197.601 56 203.652 56C209.703 56 214.609 60.9054 214.609 66.9565V108.043C214.609 109.556 215.835 110.783 217.348 110.783C218.861 110.783 220.087 109.556 220.087 108.043V77.3913C220.087 71.3402 224.992 66.4348 231.043 66.4348C237.095 66.4348 242 71.3402 242 77.3913V94.0217C242 96.2909 240.16 98.1304 237.891 98.1304C235.622 98.1304 233.783 96.2909 233.783 94.0217V77.3913C233.783 75.8785 232.556 74.6522 231.043 74.6522C229.531 74.6522 228.304 75.8785 228.304 77.3913V108.043C228.304 114.095 223.399 119 217.348 119C211.297 119 206.391 114.095 206.391 108.043V66.9565C206.391 65.4437 205.165 64.2174 203.652 64.2174Z" fill="white"/>
<g clip-path="url(#clip4_979_5241)">
<g filter="url(#filter5_d_979_5241)">
<circle cx="303" cy="88.2" r="14" fill="white"/>
</g>
<path d="M303 90C301.896 90 301 89.1048 301 88C301 86.8956 301.896 86 303 86" stroke="#005666" stroke-miterlimit="10" stroke-linecap="round" stroke-linejoin="round"/>
<path d="M303 90C304.104 90 305 89.1048 305 88C305 86.8956 304.104 86 303 86" stroke="#005666" stroke-miterlimit="10" stroke-linecap="round" stroke-linejoin="round"/>
<path d="M304.304 81.9692L304.738 83.4051C304.883 83.9795 305.463 84.2667 305.897 84.1231L307.346 83.8359C308.65 83.5487 309.519 85.1282 308.65 86.1333L307.636 87.282C307.201 87.7128 307.201 88.2871 307.636 88.7179L308.65 89.8666C309.519 90.8718 308.65 92.4513 307.346 92.1641L305.897 91.8769C305.318 91.7333 304.883 92.0205 304.738 92.5949L304.304 94.0308C303.869 95.3231 302.131 95.3231 301.696 94.0308L301.262 92.5949C301.117 92.0205 300.537 91.7333 300.103 91.8769L298.654 92.1641C297.35 92.4513 296.481 90.8718 297.35 89.8666L298.364 88.7179C298.799 88.2871 298.799 87.7128 298.364 87.282L297.35 86.1333C296.481 85.1282 297.35 83.5487 298.654 83.8359L300.103 84.1231C300.682 84.2667 301.117 83.9795 301.262 83.4051L301.696 81.9692C302.131 80.6769 304.014 80.6769 304.304 81.9692Z" stroke="#005666" stroke-miterlimit="10" stroke-linecap="round" stroke-linejoin="round"/>
</g>
<defs>
<filter id="filter0_d_979_5241" x="61" y="104" width="80" height="80" filterUnits="userSpaceOnUse" color-interpolation-filters="sRGB">
<feFlood flood-opacity="0" result="BackgroundImageFix"/>
<feColorMatrix in="SourceAlpha" type="matrix" values="0 0 0 0 0 0 0 0 0 0 0 0 0 0 0 0 0 0 127 0" result="hardAlpha"/>
<feOffset dy="4"/>
<feGaussianBlur stdDeviation="10"/>
<feComposite in2="hardAlpha" operator="out"/>
<feColorMatrix type="matrix" values="0 0 0 0 0.08 0 0 0 0 0.12 0 0 0 0 0.113333 0 0 0 0.1 0"/>
<feBlend mode="normal" in2="BackgroundImageFix" result="effect1_dropShadow_979_5241"/>
<feBlend mode="normal" in="SourceGraphic" in2="effect1_dropShadow_979_5241" result="shape"/>
</filter>
<filter id="filter1_d_979_5241" x="0" y="52" width="80" height="80" filterUnits="userSpaceOnUse" color-interpolation-filters="sRGB">
<feFlood flood-opacity="0" result="BackgroundImageFix"/>
<feColorMatrix in="SourceAlpha" type="matrix" values="0 0 0 0 0 0 0 0 0 0 0 0 0 0 0 0 0 0 127 0" result="hardAlpha"/>
<feOffset dy="4"/>
<feGaussianBlur stdDeviation="10"/>
<feComposite in2="hardAlpha" operator="out"/>
<feColorMatrix type="matrix" values="0 0 0 0 0.08 0 0 0 0 0.12 0 0 0 0 0.113333 0 0 0 0.1 0"/>
<feBlend mode="normal" in2="BackgroundImageFix" result="effect1_dropShadow_979_5241"/>
<feBlend mode="normal" in="SourceGraphic" in2="effect1_dropShadow_979_5241" result="shape"/>
</filter>
<filter id="filter2_d_979_5241" x="61" y="0" width="80" height="80" filterUnits="userSpaceOnUse" color-interpolation-filters="sRGB">
<feFlood flood-opacity="0" result="BackgroundImageFix"/>
<feColorMatrix in="SourceAlpha" type="matrix" values="0 0 0 0 0 0 0 0 0 0 0 0 0 0 0 0 0 0 127 0" result="hardAlpha"/>
<feOffset dy="4"/>
<feGaussianBlur stdDeviation="10"/>
<feComposite in2="hardAlpha" operator="out"/>
<feColorMatrix type="matrix" values="0 0 0 0 0.08 0 0 0 0 0.12 0 0 0 0 0.113333 0 0 0 0.1 0"/>
<feBlend mode="normal" in2="BackgroundImageFix" result="effect1_dropShadow_979_5241"/>
<feBlend mode="normal" in="SourceGraphic" in2="effect1_dropShadow_979_5241" result="shape"/>
</filter>
<filter id="filter3_d_979_5241" x="338" y="52" width="80" height="80" filterUnits="userSpaceOnUse" color-interpolation-filters="sRGB">
<feFlood flood-opacity="0" result="BackgroundImageFix"/>
<feColorMatrix in="SourceAlpha" type="matrix" values="0 0 0 0 0 0 0 0 0 0 0 0 0 0 0 0 0 0 127 0" result="hardAlpha"/>
<feOffset dy="4"/>
<feGaussianBlur stdDeviation="10"/>
<feComposite in2="hardAlpha" operator="out"/>
<feColorMatrix type="matrix" values="0 0 0 0 0.08 0 0 0 0 0.12 0 0 0 0 0.113333 0 0 0 0.1 0"/>
<feBlend mode="normal" in2="BackgroundImageFix" result="effect1_dropShadow_979_5241"/>
<feBlend mode="normal" in="SourceGraphic" in2="effect1_dropShadow_979_5241" result="shape"/>
</filter>
<filter id="filter4_d_979_5241" x="311" y="108" width="80" height="80" filterUnits="userSpaceOnUse" color-interpolation-filters="sRGB">
<feFlood flood-opacity="0" result="BackgroundImageFix"/>
<feColorMatrix in="SourceAlpha" type="matrix" values="0 0 0 0 0 0 0 0 0 0 0 0 0 0 0 0 0 0 127 0" result="hardAlpha"/>
<feOffset dy="4"/>
<feGaussianBlur stdDeviation="10"/>
<feComposite in2="hardAlpha" operator="out"/>
<feColorMatrix type="matrix" values="0 0 0 0 0.08 0 0 0 0 0.12 0 0 0 0 0.113333 0 0 0 0.1 0"/>
<feBlend mode="normal" in2="BackgroundImageFix" result="effect1_dropShadow_979_5241"/>
<feBlend mode="normal" in="SourceGraphic" in2="effect1_dropShadow_979_5241" result="shape"/>
</filter>
<filter id="filter5_d_979_5241" x="269" y="58.2" width="68" height="68" filterUnits="userSpaceOnUse" color-interpolation-filters="sRGB">
<feFlood flood-opacity="0" result="BackgroundImageFix"/>
<feColorMatrix in="SourceAlpha" type="matrix" values="0 0 0 0 0 0 0 0 0 0 0 0 0 0 0 0 0 0 127 0" result="hardAlpha"/>
<feOffset dy="4"/>
<feGaussianBlur stdDeviation="10"/>
<feComposite in2="hardAlpha" operator="out"/>
<feColorMatrix type="matrix" values="0 0 0 0 0.08 0 0 0 0 0.12 0 0 0 0 0.113333 0 0 0 0.1 0"/>
<feBlend mode="normal" in2="BackgroundImageFix" result="effect1_dropShadow_979_5241"/>
<feBlend mode="normal" in="SourceGraphic" in2="effect1_dropShadow_979_5241" result="shape"/>
</filter>
<linearGradient id="paint0_linear_979_5241" x1="204.351" y1="81.0833" x2="283.452" y2="154.988" gradientUnits="userSpaceOnUse">
<stop stop-color="#A4AEAB"/>
<stop offset="1" stop-color="#F3F7F6" stop-opacity="0"/>
</linearGradient>
<linearGradient id="paint1_linear_979_5241" x1="211" y1="32" x2="211" y2="144" gradientUnits="userSpaceOnUse">
<stop stop-color="#00D5FF"/>
<stop offset="1" stop-color="#0DF2F2"/>
</linearGradient>
<clipPath id="clip0_979_5241">
<rect width="17.1429" height="17.1429" fill="white" transform="translate(92.4287 130.714)"/>
</clipPath>
<clipPath id="clip1_979_5241">
<rect width="17.1429" height="17.1429" fill="white" transform="translate(31.4287 79.4286)"/>
</clipPath>
<clipPath id="clip2_979_5241">
<rect width="20" height="20" fill="white" transform="translate(91 24.5714)"/>
</clipPath>
<clipPath id="clip3_979_5241">
<rect width="17.1429" height="17.1429" fill="white" transform="translate(369.429 78.7143)"/>
</clipPath>
<clipPath id="clip4_979_5241">
<rect width="56" height="56" fill="white" transform="translate(275 63)"/>
</clipPath>
</defs>
</svg>
