<svg width="102" height="20" viewBox="0 0 102 20" fill="none" xmlns="http://www.w3.org/2000/svg">
<path fill-rule="evenodd" clip-rule="evenodd" d="M7.85553 2.6087C7.37347 2.6087 6.98269 2.99801 6.98269 3.47826V13.2091C6.98269 15.1301 5.41956 16.6874 3.49135 16.6874C1.56313 16.6874 0 15.1301 0 13.2091V7.92961C0 7.20923 0.586173 6.62526 1.30926 6.62526C2.03234 6.62526 2.61851 7.20923 2.61851 7.92961V13.2091C2.61851 13.6894 3.00929 14.0787 3.49135 14.0787C3.9734 14.0787 4.36418 13.6894 4.36418 13.2091V3.47826C4.36418 1.55727 5.92731 0 7.85553 0C9.78375 0 11.3469 1.55727 11.3469 3.47826V16.5217C11.3469 17.002 11.7377 17.3913 12.2197 17.3913C12.7018 17.3913 13.0926 17.002 13.0926 16.5217V6.79089C13.0926 4.8699 14.6557 3.31263 16.5839 3.31263C18.5121 3.31263 20.0752 4.8699 20.0752 6.79089V12.0704C20.0752 12.7908 19.4891 13.3747 18.766 13.3747C18.0429 13.3747 17.4567 12.7908 17.4567 12.0704V6.79089C17.4567 6.31064 17.066 5.92132 16.5839 5.92132C16.1018 5.92132 15.7111 6.31064 15.7111 6.79089V16.5217C15.7111 18.4427 14.1479 20 12.2197 20C10.2915 20 8.72837 18.4427 8.72837 16.5217V3.47826C8.72837 2.99801 8.33758 2.6087 7.85553 2.6087Z" fill="url(#paint0_linear_24715_140655)"/>
<path d="M37.3251 15.04H35.4606C35.0219 15.04 34.7843 14.7313 34.7843 14.3137V9.70139C34.7843 8.66643 34.1628 7.94004 33.0295 7.94004C32.1157 7.94004 31.4211 8.46673 31.0006 9.17484V14.7313C31.0034 14.7695 30.9985 14.8079 30.9862 14.8443C30.9739 14.8806 30.9544 14.9141 30.9288 14.9429C30.9033 14.9716 30.8722 14.995 30.8375 15.0117C30.8027 15.0284 30.765 15.038 30.7264 15.04H28.6609C28.6205 15.0415 28.5803 15.0343 28.5429 15.0191C28.5055 15.0039 28.4718 14.9808 28.4441 14.9516C28.4164 14.9224 28.3954 14.8876 28.3823 14.8496C28.3693 14.8116 28.3646 14.7712 28.3685 14.7313V6.0698C28.3666 5.99527 28.3943 5.92298 28.4456 5.8686C28.4969 5.81421 28.5677 5.78211 28.6427 5.77927H30.7264C30.7648 5.77608 30.8035 5.78157 30.8395 5.79532C30.8755 5.80907 30.9079 5.83072 30.9342 5.85867C30.9606 5.88661 30.9803 5.92012 30.9918 5.95668C31.0033 5.99324 31.0063 6.03191 31.0006 6.0698V7.17743C31.6405 6.3785 32.6091 5.6521 34.0531 5.6521C35.8994 5.6521 37.4166 6.83241 37.4166 9.10218V13.3513C37.4124 13.7888 37.4429 14.2259 37.5079 14.6586C37.5445 14.8584 37.4714 15.04 37.3251 15.04Z" fill="#042A31"/>
<path d="M38.3573 10.4402C38.3573 7.58942 40.5323 5.66455 43.2925 5.66455C46.0343 5.66455 48.2095 7.58942 48.2095 10.4402C48.2095 13.2729 46.0343 15.1976 43.2925 15.1976C40.5323 15.1976 38.3573 13.2729 38.3573 10.4402ZM45.7966 10.4402C45.7966 8.96941 44.7549 7.87995 43.2925 7.87995C41.8119 7.87995 40.7699 8.96941 40.7699 10.4402C40.7699 11.9111 41.8119 12.9824 43.2925 12.9824C44.7549 12.9824 45.7966 11.9111 45.7966 10.4402Z" fill="#042A31"/>
<path d="M56.2423 1.6878L55.5111 2.95892C55.4978 2.99746 55.476 3.03256 55.4472 3.06164C55.4185 3.09071 55.3836 3.11303 55.345 3.12695C55.3064 3.14088 55.2652 3.14605 55.2244 3.1421C55.1836 3.13815 55.1442 3.12517 55.109 3.10412C54.7857 2.88433 54.4041 2.76431 54.0123 2.7591C53.3908 2.7591 52.5865 3.08596 52.5865 4.30259V5.79158H54.6704C54.7009 5.79103 54.7312 5.79691 54.7593 5.80883C54.7874 5.82075 54.8126 5.83844 54.8333 5.86074C54.854 5.88303 54.8698 5.90943 54.8795 5.9382C54.8892 5.96696 54.8926 5.99744 54.8896 6.02763V7.91615C54.8908 7.94505 54.8859 7.97389 54.8753 8.00083C54.8647 8.02777 54.8486 8.05224 54.828 8.07271C54.8074 8.09317 54.7828 8.10918 54.7556 8.11973C54.7285 8.13028 54.6995 8.13514 54.6704 8.13401H52.5865V14.7618C52.5901 14.8008 52.585 14.8401 52.5715 14.877C52.5581 14.9139 52.5367 14.9473 52.5088 14.9751C52.4809 15.0028 52.4472 15.0241 52.4101 15.0374C52.373 15.0508 52.3334 15.0558 52.2941 15.0523H50.2468C50.2075 15.0559 50.1679 15.0508 50.1308 15.0374C50.0937 15.0241 50.06 15.0028 50.0321 14.9751C50.0042 14.9474 49.9828 14.9139 49.9693 14.877C49.9559 14.8401 49.9508 14.8008 49.9544 14.7618V8.13401H48.8577C48.8277 8.13549 48.7976 8.13099 48.7693 8.12079C48.741 8.11059 48.715 8.09489 48.6929 8.07461C48.6708 8.05432 48.6529 8.02986 48.6405 8.00266C48.628 7.97545 48.621 7.94604 48.6201 7.91615V6.02763C48.6191 5.99636 48.6246 5.96521 48.6361 5.93612C48.6477 5.90702 48.6652 5.8806 48.6875 5.85848C48.7097 5.83635 48.7363 5.819 48.7656 5.8075C48.7949 5.79599 48.8262 5.79058 48.8577 5.79158H49.9544V3.99387C49.9544 1.68779 51.435 0.434814 53.4822 0.434814C54.5057 0.434814 55.5111 0.743518 56.1326 1.23388C56.2013 1.28498 56.2498 1.3583 56.2699 1.44118C56.2899 1.52407 56.2802 1.6113 56.2423 1.6878Z" fill="#042A31"/>
<path d="M63.3248 6.7721L62.4291 8.22463C62.409 8.25956 62.3821 8.29016 62.35 8.31462C62.3178 8.33908 62.2811 8.35691 62.2419 8.36707C62.2027 8.37722 62.1619 8.3795 62.1218 8.37375C62.0817 8.36801 62.0432 8.35437 62.0085 8.33363C61.6287 8.08279 61.185 7.94428 60.729 7.93422C59.9064 7.93422 59.3215 8.42446 58.9742 9.13256V14.7435C58.977 14.7818 58.9721 14.8202 58.9598 14.8565C58.9475 14.8928 58.928 14.9264 58.9024 14.9551C58.8769 14.9839 58.8458 15.0073 58.8111 15.0239C58.7763 15.0406 58.7386 15.0502 58.7 15.0522H56.6346C56.5942 15.0537 56.554 15.0466 56.5166 15.0313C56.4792 15.0161 56.4455 14.9931 56.4178 14.9638C56.3901 14.9346 56.3691 14.8998 56.356 14.8618C56.343 14.8238 56.3383 14.7835 56.3422 14.7435V6.08203C56.3403 6.0075 56.3679 5.93521 56.4193 5.88083C56.4706 5.82644 56.5414 5.79434 56.6164 5.7915H58.7001C58.7385 5.78831 58.7772 5.7938 58.8132 5.80754C58.8492 5.82129 58.8816 5.84295 58.9079 5.8709C58.9343 5.89884 58.954 5.93235 58.9655 5.96891C58.977 6.00547 58.98 6.04414 58.9743 6.08203V7.04445C59.5592 6.28174 60.3817 5.66433 61.4785 5.66433C62.1052 5.65195 62.7153 5.86474 63.1967 6.26356C63.3979 6.42708 63.4527 6.57227 63.3248 6.7721Z" fill="#042A31"/>
<path d="M64.2655 1.86948C64.2685 1.51572 64.4126 1.17757 64.6661 0.929118C64.9196 0.680662 65.2619 0.542162 65.618 0.543963C65.8837 0.545714 66.143 0.625712 66.363 0.773839C66.5829 0.921966 66.7538 1.13157 66.8538 1.37614C66.9539 1.62071 66.9787 1.88926 66.9251 2.14783C66.8715 2.4064 66.7419 2.64337 66.5527 2.82878C66.3635 3.01419 66.1232 3.1397 65.8623 3.18945C65.6013 3.23919 65.3313 3.21094 65.0865 3.10825C64.8417 3.00557 64.633 2.83307 64.4869 2.61256C64.3407 2.39206 64.2637 2.13346 64.2655 1.86948ZM64.3021 14.7619V6.08225C64.3 6.04357 64.3062 6.00488 64.3201 5.9687C64.3341 5.93252 64.3555 5.89966 64.3831 5.87226C64.4107 5.84486 64.4437 5.82353 64.4801 5.80965C64.5166 5.79578 64.5555 5.78967 64.5944 5.79172H66.6418C66.6803 5.79122 66.7186 5.7984 66.7543 5.81282C66.79 5.82725 66.8224 5.84863 66.8497 5.87571C66.8769 5.90279 66.8984 5.93502 66.913 5.97049C66.9275 6.00597 66.9347 6.04397 66.9341 6.08225V14.7619C66.9347 14.8002 66.9274 14.8382 66.9129 14.8736C66.8984 14.9091 66.8769 14.9413 66.8497 14.9684C66.8224 14.9955 66.79 15.0169 66.7543 15.0313C66.7186 15.0457 66.6803 15.0529 66.6418 15.0524H64.5944C64.5555 15.0545 64.5166 15.0484 64.4801 15.0345C64.4437 15.0206 64.4107 14.9993 64.3831 14.9719C64.3555 14.9445 64.3341 14.9116 64.3201 14.8755C64.3062 14.8393 64.3 14.8006 64.3021 14.7619H64.3021Z" fill="#042A31"/>
<path d="M76.7219 15.0523H74.5469C74.3822 15.0523 74.3091 14.9978 74.2178 14.8344L72.5543 12.3103L70.8911 14.8344C70.8638 14.9026 70.8155 14.9604 70.7531 14.9995C70.6907 15.0387 70.6174 15.0571 70.5437 15.0523H68.3685C68.3194 15.0448 68.273 15.0247 68.2341 14.994C68.1952 14.9633 68.165 14.923 68.1465 14.8772C68.1281 14.8313 68.122 14.7815 68.1288 14.7326C68.1357 14.6837 68.1553 14.6374 68.1856 14.5983L71.1468 10.4037L68.204 6.24547C68.1722 6.20546 68.152 6.15761 68.1455 6.10705C68.139 6.05648 68.1465 6.00512 68.1672 5.95846C68.1878 5.9118 68.2209 5.87161 68.2628 5.8422C68.3047 5.81279 68.3539 5.79527 68.4051 5.79152H70.5619C70.6383 5.78401 70.7152 5.80115 70.781 5.84038C70.8469 5.87962 70.8983 5.93888 70.9276 6.00939L72.5543 8.49714L74.1812 6.00939C74.2084 5.94122 74.2567 5.88339 74.3191 5.84424C74.3815 5.80508 74.4549 5.78663 74.5285 5.79152H76.7219C76.923 5.79152 77.0327 6.04572 76.9048 6.24547L73.962 10.4038L76.923 14.5984C76.9567 14.6378 76.9785 14.6859 76.986 14.737C76.9935 14.7882 76.9864 14.8405 76.9654 14.8878C76.9445 14.9352 76.9105 14.9757 76.8675 15.0048C76.8244 15.0338 76.774 15.0503 76.7219 15.0523Z" fill="#042A31"/>
<path d="M78.1378 1.86948C78.1408 1.51572 78.2849 1.17757 78.5384 0.929117C78.7919 0.680662 79.1342 0.542162 79.4903 0.543963C79.7561 0.545717 80.0153 0.625717 80.2353 0.773846C80.4553 0.921975 80.6261 1.13158 80.7261 1.37615C80.8262 1.62072 80.851 1.88927 80.7974 2.14784C80.7438 2.40641 80.6142 2.64338 80.425 2.82879C80.2358 3.01419 79.9956 3.13971 79.7346 3.18945C79.4736 3.23919 79.2036 3.21094 78.9588 3.10825C78.714 3.00557 78.5053 2.83306 78.3592 2.61256C78.213 2.39206 78.136 2.13346 78.1378 1.86948ZM78.1744 14.7619V6.08225C78.1723 6.04356 78.1785 6.00487 78.1924 5.96869C78.2064 5.93251 78.2278 5.89965 78.2554 5.87225C78.283 5.84485 78.3161 5.82352 78.3525 5.80965C78.3889 5.79577 78.4278 5.78967 78.4668 5.79172H80.5141C80.5527 5.79123 80.5909 5.7984 80.6266 5.81283C80.6623 5.82725 80.6948 5.84864 80.722 5.87572C80.7493 5.9028 80.7708 5.93502 80.7853 5.9705C80.7998 6.00597 80.807 6.04397 80.8065 6.08225V14.7619C80.807 14.8002 80.7998 14.8382 80.7853 14.8736C80.7707 14.9091 80.7492 14.9413 80.722 14.9684C80.6947 14.9955 80.6623 15.0169 80.6266 15.0313C80.5909 15.0457 80.5527 15.0529 80.5141 15.0524H78.4668C78.4278 15.0545 78.3889 15.0484 78.3525 15.0345C78.3161 15.0206 78.283 14.9993 78.2554 14.9719C78.2279 14.9445 78.2064 14.9116 78.1924 14.8754C78.1785 14.8393 78.1723 14.8006 78.1744 14.7619Z" fill="#042A31"/>
<path d="M81.9854 10.4402C81.9854 7.58942 84.1604 5.66455 86.9205 5.66455C89.6623 5.66455 91.8375 7.58942 91.8375 10.4402C91.8375 13.2729 89.6623 15.1976 86.9205 15.1976C84.1604 15.1976 81.9854 13.2729 81.9854 10.4402ZM89.4247 10.4402C89.4247 8.96941 88.383 7.87995 86.9205 7.87995C85.4399 7.87995 84.398 8.96941 84.398 10.4402C84.398 11.9111 85.4399 12.9824 86.9205 12.9824C88.383 12.9824 89.4247 11.9111 89.4247 10.4402Z" fill="#042A31"/>
<path d="M101.808 15.0524H99.9432C99.5046 15.0524 99.267 14.7437 99.267 14.3261V9.71384C99.267 8.67888 98.6455 7.95249 97.5122 7.95249C96.5984 7.95249 95.9037 8.47918 95.4832 9.18729V14.7437C95.4861 14.782 95.4812 14.8204 95.4688 14.8567C95.4565 14.893 95.437 14.9266 95.4115 14.9553C95.386 14.9841 95.3549 15.0075 95.3202 15.0241C95.2854 15.0408 95.2477 15.0504 95.2091 15.0524H93.1436C93.1032 15.0539 93.0629 15.0468 93.0255 15.0315C92.9882 15.0163 92.9545 14.9933 92.9268 14.964C92.8991 14.9348 92.878 14.9 92.865 14.862C92.852 14.824 92.8473 14.7837 92.8512 14.7437V6.08225C92.8492 6.00773 92.8769 5.93544 92.9282 5.88105C92.9796 5.82666 93.0504 5.79457 93.1254 5.79172H95.2091C95.2476 5.78853 95.2862 5.79402 95.3222 5.80777C95.3582 5.82152 95.3906 5.84317 95.4169 5.87112C95.4433 5.89906 95.463 5.93257 95.4745 5.96913C95.486 6.00569 95.489 6.04436 95.4833 6.08225V7.18988C96.123 6.39095 97.0918 5.66455 98.5358 5.66455C100.382 5.66455 101.899 6.84486 101.899 9.11463V13.3637C101.895 13.8012 101.926 14.2384 101.991 14.6711C102.027 14.8709 101.954 15.0524 101.808 15.0524Z" fill="#042A31"/>
<defs>
<linearGradient id="paint0_linear_24715_140655" x1="3.61208" y1="10" x2="16.3313" y2="10" gradientUnits="userSpaceOnUse">
<stop stop-color="#04E2B6"/>
<stop offset="1" stop-color="#00D3FF"/>
</linearGradient>
</defs>
</svg>
